<?xml version="1.0" encoding="UTF-8"?>
<!DOCTYPE svg PUBLIC "-//W3C//DTD SVG 1.1//EN" "http://www.w3.org/Graphics/SVG/1.1/DTD/svg11.dtd">
<svg xmlns="http://www.w3.org/2000/svg" version="1.1" width="512px" height="512px" style="shape-rendering:geometricPrecision; text-rendering:geometricPrecision; image-rendering:optimizeQuality; fill-rule:evenodd; clip-rule:evenodd" xmlns:xlink="http://www.w3.org/1999/xlink">
<g><path style="opacity:0.977" fill="#29f498" d="M 47.5,-0.5 C 94.1667,-0.5 140.833,-0.5 187.5,-0.5C 191.774,0.828658 196.107,2.32866 200.5,4C 203.239,5.02594 205.572,6.52594 207.5,8.5C 147.5,8.5 87.5,8.5 27.5,8.5C 29.428,6.52594 31.7613,5.02594 34.5,4C 38.8927,2.32866 43.226,0.828658 47.5,-0.5 Z"/></g>
<g><path style="opacity:0.978" fill="#29f498" d="M 324.5,-0.5 C 370.5,-0.5 416.5,-0.5 462.5,-0.5C 470.052,1.13106 477.052,4.13106 483.5,8.5C 423.5,8.5 363.5,8.5 303.5,8.5C 309.948,4.13106 316.948,1.13106 324.5,-0.5 Z"/></g>
<g><path style="opacity:0.991" fill="#28f29b" d="M 27.5,8.5 C 87.5,8.5 147.5,8.5 207.5,8.5C 214.047,11.7745 219.381,16.4412 223.5,22.5C 152.833,22.5 82.1667,22.5 11.5,22.5C 15.6193,16.4412 20.9526,11.7745 27.5,8.5 Z"/></g>
<g><path style="opacity:0.99" fill="#28f29b" d="M 303.5,8.5 C 363.5,8.5 423.5,8.5 483.5,8.5C 489.727,12.0549 495.06,16.7216 499.5,22.5C 428.833,22.5 358.167,22.5 287.5,22.5C 291.94,16.7216 297.273,12.0549 303.5,8.5 Z"/></g>
<g><path style="opacity:0.99" fill="#27ef9e" d="M 11.5,22.5 C 82.1667,22.5 152.833,22.5 223.5,22.5C 228.688,28.5455 232.021,35.5455 233.5,43.5C 218.167,43.5 202.833,43.5 187.5,43.5C 184.088,41.641 180.422,40.4744 176.5,40C 137.167,39.3333 97.8333,39.3333 58.5,40C 54.5783,40.4744 50.9116,41.641 47.5,43.5C 32.1667,43.5 16.8333,43.5 1.5,43.5C 2.97855,35.5455 6.31188,28.5455 11.5,22.5 Z"/></g>
<g><path style="opacity:0.99" fill="#27ef9e" d="M 287.5,22.5 C 358.167,22.5 428.833,22.5 499.5,22.5C 504.168,28.8377 507.502,35.8377 509.5,43.5C 493.833,43.5 478.167,43.5 462.5,43.5C 459.204,41.2793 455.537,40.1127 451.5,40C 412.833,39.3333 374.167,39.3333 335.5,40C 331.463,40.1127 327.796,41.2793 324.5,43.5C 308.833,43.5 293.167,43.5 277.5,43.5C 279.498,35.8377 282.832,28.8377 287.5,22.5 Z"/></g>
<g><path style="opacity:0.967" fill="#26eca1" d="M 1.5,43.5 C 16.8333,43.5 32.1667,43.5 47.5,43.5C 44.6895,45.974 42.6895,48.974 41.5,52.5C 27.5,52.5 13.5,52.5 -0.5,52.5C -0.5,50.8333 -0.5,49.1667 -0.5,47.5C 0.166667,46.1667 0.833333,44.8333 1.5,43.5 Z"/></g>
<g><path style="opacity:0.967" fill="#26eca1" d="M 187.5,43.5 C 202.833,43.5 218.167,43.5 233.5,43.5C 234.913,46.2186 235.58,49.2186 235.5,52.5C 221.5,52.5 207.5,52.5 193.5,52.5C 192.31,48.974 190.31,45.974 187.5,43.5 Z"/></g>
<g><path style="opacity:0.968" fill="#26eca1" d="M 277.5,43.5 C 293.167,43.5 308.833,43.5 324.5,43.5C 321.465,45.8788 319.131,48.8788 317.5,52.5C 303.5,52.5 289.5,52.5 275.5,52.5C 275.7,49.3704 276.366,46.3704 277.5,43.5 Z"/></g>
<g><path style="opacity:0.968" fill="#26eca1" d="M 462.5,43.5 C 478.167,43.5 493.833,43.5 509.5,43.5C 510.024,45.3057 510.691,46.9724 511.5,48.5C 511.5,49.8333 511.5,51.1667 511.5,52.5C 497.5,52.5 483.5,52.5 469.5,52.5C 467.869,48.8788 465.535,45.8788 462.5,43.5 Z"/></g>
<g><path style="opacity:0.977" fill="#26eca2" d="M -0.5,52.5 C 13.5,52.5 27.5,52.5 41.5,52.5C 41.1667,53.1667 40.8333,53.8333 40.5,54.5C 26.8333,54.5 13.1667,54.5 -0.5,54.5C -0.5,53.8333 -0.5,53.1667 -0.5,52.5 Z"/></g>
<g><path style="opacity:0.977" fill="#26eca2" d="M 193.5,52.5 C 207.5,52.5 221.5,52.5 235.5,52.5C 235.5,53.1667 235.5,53.8333 235.5,54.5C 221.833,54.5 208.167,54.5 194.5,54.5C 194.167,53.8333 193.833,53.1667 193.5,52.5 Z"/></g>
<g><path style="opacity:0.98" fill="#26eca2" d="M 275.5,52.5 C 289.5,52.5 303.5,52.5 317.5,52.5C 317.167,53.1667 316.833,53.8333 316.5,54.5C 302.833,54.5 289.167,54.5 275.5,54.5C 275.5,53.8333 275.5,53.1667 275.5,52.5 Z"/></g>
<g><path style="opacity:0.98" fill="#26eca2" d="M 469.5,52.5 C 483.5,52.5 497.5,52.5 511.5,52.5C 511.5,53.1667 511.5,53.8333 511.5,54.5C 497.833,54.5 484.167,54.5 470.5,54.5C 470.167,53.8333 469.833,53.1667 469.5,52.5 Z"/></g>
<g><path style="opacity:0.996" fill="#24e9a5" d="M -0.5,54.5 C 13.1667,54.5 26.8333,54.5 40.5,54.5C 39.6351,62.4659 39.3018,70.4659 39.5,78.5C 26.1667,78.5 12.8333,78.5 -0.5,78.5C -0.5,70.5 -0.5,62.5 -0.5,54.5 Z"/></g>
<g><path style="opacity:0.996" fill="#24e9a5" d="M 194.5,54.5 C 208.167,54.5 221.833,54.5 235.5,54.5C 235.5,62.5 235.5,70.5 235.5,78.5C 222.167,78.5 208.833,78.5 195.5,78.5C 195.698,70.4659 195.365,62.4659 194.5,54.5 Z"/></g>
<g><path style="opacity:0.996" fill="#24e9a5" d="M 275.5,54.5 C 289.167,54.5 302.833,54.5 316.5,54.5C 315.677,62.4712 315.344,70.4712 315.5,78.5C 302.167,78.5 288.833,78.5 275.5,78.5C 275.5,70.5 275.5,62.5 275.5,54.5 Z"/></g>
<g><path style="opacity:0.996" fill="#24e9a5" d="M 470.5,54.5 C 484.167,54.5 497.833,54.5 511.5,54.5C 511.5,62.5 511.5,70.5 511.5,78.5C 498.167,78.5 484.833,78.5 471.5,78.5C 471.656,70.4712 471.323,62.4712 470.5,54.5 Z"/></g>
<g><path style="opacity:1" fill="#23e7a7" d="M -0.5,78.5 C 12.8333,78.5 26.1667,78.5 39.5,78.5C 39.5,80.1667 39.5,81.8333 39.5,83.5C 26.1667,83.5 12.8333,83.5 -0.5,83.5C -0.5,81.8333 -0.5,80.1667 -0.5,78.5 Z"/></g>
<g><path style="opacity:1" fill="#23e7a7" d="M 195.5,78.5 C 208.833,78.5 222.167,78.5 235.5,78.5C 235.5,80.1667 235.5,81.8333 235.5,83.5C 222.167,83.5 208.833,83.5 195.5,83.5C 195.5,81.8333 195.5,80.1667 195.5,78.5 Z"/></g>
<g><path style="opacity:1" fill="#23e7a7" d="M 275.5,78.5 C 288.833,78.5 302.167,78.5 315.5,78.5C 315.5,80.1667 315.5,81.8333 315.5,83.5C 302.167,83.5 288.833,83.5 275.5,83.5C 275.5,81.8333 275.5,80.1667 275.5,78.5 Z"/></g>
<g><path style="opacity:1" fill="#23e7a7" d="M 471.5,78.5 C 484.833,78.5 498.167,78.5 511.5,78.5C 511.5,80.1667 511.5,81.8333 511.5,83.5C 498.167,83.5 484.833,83.5 471.5,83.5C 471.5,81.8333 471.5,80.1667 471.5,78.5 Z"/></g>
<g><path style="opacity:1" fill="#21e4ab" d="M -0.5,83.5 C 12.8333,83.5 26.1667,83.5 39.5,83.5C 39.5,93.5 39.5,103.5 39.5,113.5C 26.1667,113.5 12.8333,113.5 -0.5,113.5C -0.5,103.5 -0.5,93.5 -0.5,83.5 Z"/></g>
<g><path style="opacity:1" fill="#21e4ab" d="M 195.5,83.5 C 208.833,83.5 222.167,83.5 235.5,83.5C 235.5,93.5 235.5,103.5 235.5,113.5C 222.167,113.5 208.833,113.5 195.5,113.5C 195.5,103.5 195.5,93.5 195.5,83.5 Z"/></g>
<g><path style="opacity:1" fill="#21e4ab" d="M 275.5,83.5 C 288.833,83.5 302.167,83.5 315.5,83.5C 315.5,93.5 315.5,103.5 315.5,113.5C 302.167,113.5 288.833,113.5 275.5,113.5C 275.5,103.5 275.5,93.5 275.5,83.5 Z"/></g>
<g><path style="opacity:1" fill="#21e4ab" d="M 471.5,83.5 C 484.833,83.5 498.167,83.5 511.5,83.5C 511.5,93.5 511.5,103.5 511.5,113.5C 498.167,113.5 484.833,113.5 471.5,113.5C 471.5,103.5 471.5,93.5 471.5,83.5 Z"/></g>
<g><path style="opacity:1" fill="#20e1af" d="M -0.5,113.5 C 12.8333,113.5 26.1667,113.5 39.5,113.5C 39.5,115.833 39.5,118.167 39.5,120.5C 26.1667,120.5 12.8333,120.5 -0.5,120.5C -0.5,118.167 -0.5,115.833 -0.5,113.5 Z"/></g>
<g><path style="opacity:1" fill="#20e1af" d="M 195.5,113.5 C 208.833,113.5 222.167,113.5 235.5,113.5C 235.5,115.833 235.5,118.167 235.5,120.5C 222.167,120.5 208.833,120.5 195.5,120.5C 195.5,118.167 195.5,115.833 195.5,113.5 Z"/></g>
<g><path style="opacity:1" fill="#20e1af" d="M 275.5,113.5 C 288.833,113.5 302.167,113.5 315.5,113.5C 315.5,115.833 315.5,118.167 315.5,120.5C 302.167,120.5 288.833,120.5 275.5,120.5C 275.5,118.167 275.5,115.833 275.5,113.5 Z"/></g>
<g><path style="opacity:1" fill="#20e1af" d="M 471.5,113.5 C 484.833,113.5 498.167,113.5 511.5,113.5C 511.5,115.833 511.5,118.167 511.5,120.5C 498.167,120.5 484.833,120.5 471.5,120.5C 471.5,118.167 471.5,115.833 471.5,113.5 Z"/></g>
<g><path style="opacity:1" fill="#20dfb0" d="M -0.5,120.5 C 12.8333,120.5 26.1667,120.5 39.5,120.5C 39.5,122.833 39.5,125.167 39.5,127.5C 26.1667,127.5 12.8333,127.5 -0.5,127.5C -0.5,125.167 -0.5,122.833 -0.5,120.5 Z"/></g>
<g><path style="opacity:1" fill="#20dfb0" d="M 195.5,120.5 C 208.833,120.5 222.167,120.5 235.5,120.5C 235.5,122.833 235.5,125.167 235.5,127.5C 222.167,127.5 208.833,127.5 195.5,127.5C 195.5,125.167 195.5,122.833 195.5,120.5 Z"/></g>
<g><path style="opacity:1" fill="#20dfb0" d="M 275.5,120.5 C 288.833,120.5 302.167,120.5 315.5,120.5C 315.5,122.833 315.5,125.167 315.5,127.5C 302.167,127.5 288.833,127.5 275.5,127.5C 275.5,125.167 275.5,122.833 275.5,120.5 Z"/></g>
<g><path style="opacity:1" fill="#20dfb0" d="M 471.5,120.5 C 484.833,120.5 498.167,120.5 511.5,120.5C 511.5,122.833 511.5,125.167 511.5,127.5C 498.167,127.5 484.833,127.5 471.5,127.5C 471.5,125.167 471.5,122.833 471.5,120.5 Z"/></g>
<g><path style="opacity:1" fill="#1eddb3" d="M -0.5,127.5 C 12.8333,127.5 26.1667,127.5 39.5,127.5C 39.5,134.5 39.5,141.5 39.5,148.5C 26.1667,148.5 12.8333,148.5 -0.5,148.5C -0.5,141.5 -0.5,134.5 -0.5,127.5 Z"/></g>
<g><path style="opacity:1" fill="#1eddb3" d="M 195.5,127.5 C 208.833,127.5 222.167,127.5 235.5,127.5C 235.5,134.5 235.5,141.5 235.5,148.5C 222.167,148.5 208.833,148.5 195.5,148.5C 195.5,141.5 195.5,134.5 195.5,127.5 Z"/></g>
<g><path style="opacity:1" fill="#1eddb3" d="M 275.5,127.5 C 288.833,127.5 302.167,127.5 315.5,127.5C 315.5,134.5 315.5,141.5 315.5,148.5C 302.167,148.5 288.833,148.5 275.5,148.5C 275.5,141.5 275.5,134.5 275.5,127.5 Z"/></g>
<g><path style="opacity:1" fill="#1eddb3" d="M 471.5,127.5 C 484.833,127.5 498.167,127.5 511.5,127.5C 511.5,134.5 511.5,141.5 511.5,148.5C 498.167,148.5 484.833,148.5 471.5,148.5C 471.5,141.5 471.5,134.5 471.5,127.5 Z"/></g>
<g><path style="opacity:1" fill="#1ddbb6" d="M -0.5,148.5 C 12.8333,148.5 26.1667,148.5 39.5,148.5C 39.5,150.833 39.5,153.167 39.5,155.5C 26.1667,155.5 12.8333,155.5 -0.5,155.5C -0.5,153.167 -0.5,150.833 -0.5,148.5 Z"/></g>
<g><path style="opacity:1" fill="#1ddbb6" d="M 195.5,148.5 C 208.833,148.5 222.167,148.5 235.5,148.5C 235.5,150.833 235.5,153.167 235.5,155.5C 222.167,155.5 208.833,155.5 195.5,155.5C 195.5,153.167 195.5,150.833 195.5,148.5 Z"/></g>
<g><path style="opacity:1" fill="#1ddbb6" d="M 275.5,148.5 C 288.833,148.5 302.167,148.5 315.5,148.5C 315.5,150.833 315.5,153.167 315.5,155.5C 302.167,155.5 288.833,155.5 275.5,155.5C 275.5,153.167 275.5,150.833 275.5,148.5 Z"/></g>
<g><path style="opacity:1" fill="#1ddbb6" d="M 471.5,148.5 C 484.833,148.5 498.167,148.5 511.5,148.5C 511.5,150.833 511.5,153.167 511.5,155.5C 498.167,155.5 484.833,155.5 471.5,155.5C 471.5,153.167 471.5,150.833 471.5,148.5 Z"/></g>
<g><path style="opacity:0.997" fill="#1cd8b9" d="M -0.5,155.5 C 12.8333,155.5 26.1667,155.5 39.5,155.5C 39.264,163.542 39.5973,171.542 40.5,179.5C 26.8333,179.5 13.1667,179.5 -0.5,179.5C -0.5,171.5 -0.5,163.5 -0.5,155.5 Z"/></g>
<g><path style="opacity:0.997" fill="#1cd8b9" d="M 195.5,155.5 C 208.833,155.5 222.167,155.5 235.5,155.5C 235.5,163.5 235.5,171.5 235.5,179.5C 221.833,179.5 208.167,179.5 194.5,179.5C 195.403,171.542 195.736,163.542 195.5,155.5 Z"/></g>
<g><path style="opacity:0.996" fill="#1cd8b9" d="M 275.5,155.5 C 288.833,155.5 302.167,155.5 315.5,155.5C 315.302,163.534 315.635,171.534 316.5,179.5C 302.833,179.5 289.167,179.5 275.5,179.5C 275.5,171.5 275.5,163.5 275.5,155.5 Z"/></g>
<g><path style="opacity:0.996" fill="#1cd8b9" d="M 471.5,155.5 C 484.833,155.5 498.167,155.5 511.5,155.5C 511.5,163.5 511.5,171.5 511.5,179.5C 497.833,179.5 484.167,179.5 470.5,179.5C 471.365,171.534 471.698,163.534 471.5,155.5 Z"/></g>
<g><path style="opacity:0.971" fill="#1ad5bc" d="M -0.5,179.5 C 13.1667,179.5 26.8333,179.5 40.5,179.5C 41.2033,183.909 43.2033,187.576 46.5,190.5C 31.1667,190.5 15.8333,190.5 0.5,190.5C 0.737305,189.209 0.403972,188.209 -0.5,187.5C -0.5,184.833 -0.5,182.167 -0.5,179.5 Z"/></g>
<g><path style="opacity:0.971" fill="#1ad5bc" d="M 194.5,179.5 C 208.167,179.5 221.833,179.5 235.5,179.5C 235.577,183.215 235.244,186.881 234.5,190.5C 219.167,190.5 203.833,190.5 188.5,190.5C 191.797,187.576 193.797,183.909 194.5,179.5 Z"/></g>
<g><path style="opacity:0.972" fill="#1ad5bc" d="M 275.5,179.5 C 289.167,179.5 302.833,179.5 316.5,179.5C 317.726,183.62 319.726,187.287 322.5,190.5C 307.5,190.5 292.5,190.5 277.5,190.5C 275.918,187.124 275.251,183.458 275.5,179.5 Z"/></g>
<g><path style="opacity:0.972" fill="#1ad5bc" d="M 470.5,179.5 C 484.167,179.5 497.833,179.5 511.5,179.5C 511.5,181.833 511.5,184.167 511.5,186.5C 510.833,187.833 510.167,189.167 509.5,190.5C 494.5,190.5 479.5,190.5 464.5,190.5C 467.274,187.287 469.274,183.62 470.5,179.5 Z"/></g>
<g><path style="opacity:0.989" fill="#19d2bf" d="M 0.5,190.5 C 15.8333,190.5 31.1667,190.5 46.5,190.5C 50.0377,193.07 54.0377,194.57 58.5,195C 97.8333,195.667 137.167,195.667 176.5,195C 180.962,194.57 184.962,193.07 188.5,190.5C 203.833,190.5 219.167,190.5 234.5,190.5C 232.82,197.525 229.82,203.858 225.5,209.5C 153.5,209.5 81.5,209.5 9.5,209.5C 5.18034,203.858 2.18034,197.525 0.5,190.5 Z"/></g>
<g><path style="opacity:0.988" fill="#19d2bf" d="M 277.5,190.5 C 292.5,190.5 307.5,190.5 322.5,190.5C 326.398,193.109 330.732,194.609 335.5,195C 374.167,195.667 412.833,195.667 451.5,195C 456.268,194.609 460.602,193.109 464.5,190.5C 479.5,190.5 494.5,190.5 509.5,190.5C 508.188,197.451 505.521,203.785 501.5,209.5C 429.5,209.5 357.5,209.5 285.5,209.5C 281.479,203.785 278.812,197.451 277.5,190.5 Z"/></g>
<g><path style="opacity:0.994" fill="#19d1c1" d="M 9.5,209.5 C 81.5,209.5 153.5,209.5 225.5,209.5C 225.068,210.71 224.401,211.71 223.5,212.5C 152.833,212.5 82.1667,212.5 11.5,212.5C 10.5987,211.71 9.93205,210.71 9.5,209.5 Z"/></g>
<g><path style="opacity:0.993" fill="#19d1c1" d="M 285.5,209.5 C 357.5,209.5 429.5,209.5 501.5,209.5C 500.833,210.5 500.167,211.5 499.5,212.5C 428.833,212.5 358.167,212.5 287.5,212.5C 286.833,211.5 286.167,210.5 285.5,209.5 Z"/></g>
<g><path style="opacity:0.991" fill="#17cfc3" d="M 11.5,212.5 C 82.1667,212.5 152.833,212.5 223.5,212.5C 220.1,218.2 215.433,222.533 209.5,225.5C 148.167,225.5 86.8333,225.5 25.5,225.5C 19.5671,222.533 14.9005,218.2 11.5,212.5 Z"/></g>
<g><path style="opacity:0.99" fill="#17cfc3" d="M 287.5,212.5 C 358.167,212.5 428.833,212.5 499.5,212.5C 495.461,217.54 490.794,221.873 485.5,225.5C 424.167,225.5 362.833,225.5 301.5,225.5C 296.206,221.873 291.539,217.54 287.5,212.5 Z"/></g>
<g><path style="opacity:0.978" fill="#17cdc5" d="M 25.5,225.5 C 86.8333,225.5 148.167,225.5 209.5,225.5C 202.98,230.293 195.647,233.46 187.5,235C 140.833,235.667 94.1667,235.667 47.5,235C 39.3532,233.46 32.0199,230.293 25.5,225.5 Z"/></g>
<g><path style="opacity:0.979" fill="#17cdc5" d="M 301.5,225.5 C 362.833,225.5 424.167,225.5 485.5,225.5C 478.589,230.283 470.922,233.449 462.5,235C 416.5,235.667 370.5,235.667 324.5,235C 316.078,233.449 308.411,230.283 301.5,225.5 Z"/></g>
<g><path style="opacity:0.983" fill="#13c5cf" d="M 210.5,286.5 C 148.5,286.5 86.5,286.5 24.5,286.5C 31.1316,281 38.7983,277.5 47.5,276C 94.1667,275.333 140.833,275.333 187.5,276C 196.202,277.5 203.868,281 210.5,286.5 Z"/></g>
<g><path style="opacity:0.983" fill="#13c5cf" d="M 486.5,286.5 C 424.5,286.5 362.5,286.5 300.5,286.5C 307.579,281.132 315.579,277.632 324.5,276C 370.5,275.333 416.5,275.333 462.5,276C 471.421,277.632 479.421,281.132 486.5,286.5 Z"/></g>
<g><path style="opacity:0.991" fill="#11c2d2" d="M 24.5,286.5 C 86.5,286.5 148.5,286.5 210.5,286.5C 217.479,290.145 222.812,295.478 226.5,302.5C 153.833,302.5 81.1667,302.5 8.5,302.5C 12.1882,295.478 17.5215,290.145 24.5,286.5 Z"/></g>
<g><path style="opacity:0.991" fill="#11c2d2" d="M 300.5,286.5 C 362.5,286.5 424.5,286.5 486.5,286.5C 492.833,290.833 498.167,296.167 502.5,302.5C 429.833,302.5 357.167,302.5 284.5,302.5C 288.833,296.167 294.167,290.833 300.5,286.5 Z"/></g>
<g><path style="opacity:0.994" fill="#11c1d4" d="M 8.5,302.5 C 81.1667,302.5 153.833,302.5 226.5,302.5C 227.6,303.605 228.267,304.938 228.5,306.5C 154.5,306.5 80.5,306.5 6.5,306.5C 6.73286,304.938 7.39952,303.605 8.5,302.5 Z"/></g>
<g><path style="opacity:0.993" fill="#11c1d4" d="M 284.5,302.5 C 357.167,302.5 429.833,302.5 502.5,302.5C 503.167,303.833 503.833,305.167 504.5,306.5C 430.5,306.5 356.5,306.5 282.5,306.5C 283.167,305.167 283.833,303.833 284.5,302.5 Z"/></g>
<g><path style="opacity:0.983" fill="#10bed6" d="M 6.5,306.5 C 80.5,306.5 154.5,306.5 228.5,306.5C 233.953,315.653 236.287,325.653 235.5,336.5C 222.167,336.5 208.833,336.5 195.5,336.5C 195.258,326.766 190.591,320.266 181.5,317C 160.207,315.862 138.874,315.362 117.5,315.5C 96.1262,315.362 74.7929,315.862 53.5,317C 44.4091,320.266 39.7424,326.766 39.5,336.5C 26.1667,336.5 12.8333,336.5 -0.5,336.5C -0.5,332.167 -0.5,327.833 -0.5,323.5C 0.992623,317.511 3.32596,311.844 6.5,306.5 Z"/></g>
<g><path style="opacity:0.983" fill="#10bed6" d="M 282.5,306.5 C 356.5,306.5 430.5,306.5 504.5,306.5C 507.644,312.278 509.977,318.278 511.5,324.5C 511.5,328.5 511.5,332.5 511.5,336.5C 498.167,336.5 484.833,336.5 471.5,336.5C 470.504,327.341 465.838,320.841 457.5,317C 436.202,315.868 414.868,315.368 393.5,315.5C 372.132,315.368 350.798,315.868 329.5,317C 321.162,320.841 316.496,327.341 315.5,336.5C 302.167,336.5 288.833,336.5 275.5,336.5C 275.007,325.807 277.34,315.807 282.5,306.5 Z"/></g>
<g><path style="opacity:1" fill="#0ebcdb" d="M -0.5,336.5 C 12.8333,336.5 26.1667,336.5 39.5,336.5C 39.5,337.167 39.5,337.833 39.5,338.5C 26.1667,338.5 12.8333,338.5 -0.5,338.5C -0.5,337.833 -0.5,337.167 -0.5,336.5 Z"/></g>
<g><path style="opacity:1" fill="#0ebcdb" d="M 195.5,336.5 C 208.833,336.5 222.167,336.5 235.5,336.5C 235.5,337.167 235.5,337.833 235.5,338.5C 222.167,338.5 208.833,338.5 195.5,338.5C 195.5,337.833 195.5,337.167 195.5,336.5 Z"/></g>
<g><path style="opacity:1" fill="#0ebcdb" d="M 275.5,336.5 C 288.833,336.5 302.167,336.5 315.5,336.5C 315.5,337.167 315.5,337.833 315.5,338.5C 302.167,338.5 288.833,338.5 275.5,338.5C 275.5,337.833 275.5,337.167 275.5,336.5 Z"/></g>
<g><path style="opacity:1" fill="#0ebcdb" d="M 471.5,336.5 C 484.833,336.5 498.167,336.5 511.5,336.5C 511.5,337.167 511.5,337.833 511.5,338.5C 498.167,338.5 484.833,338.5 471.5,338.5C 471.5,337.833 471.5,337.167 471.5,336.5 Z"/></g>
<g><path style="opacity:1" fill="#0db9dc" d="M -0.5,338.5 C 12.8333,338.5 26.1667,338.5 39.5,338.5C 39.5,345.5 39.5,352.5 39.5,359.5C 26.1667,359.5 12.8333,359.5 -0.5,359.5C -0.5,352.5 -0.5,345.5 -0.5,338.5 Z"/></g>
<g><path style="opacity:1" fill="#0db9dc" d="M 195.5,338.5 C 208.833,338.5 222.167,338.5 235.5,338.5C 235.5,345.5 235.5,352.5 235.5,359.5C 222.167,359.5 208.833,359.5 195.5,359.5C 195.5,352.5 195.5,345.5 195.5,338.5 Z"/></g>
<g><path style="opacity:1" fill="#0db9dc" d="M 275.5,338.5 C 288.833,338.5 302.167,338.5 315.5,338.5C 315.5,345.5 315.5,352.5 315.5,359.5C 302.167,359.5 288.833,359.5 275.5,359.5C 275.5,352.5 275.5,345.5 275.5,338.5 Z"/></g>
<g><path style="opacity:1" fill="#0db9dc" d="M 471.5,338.5 C 484.833,338.5 498.167,338.5 511.5,338.5C 511.5,345.5 511.5,352.5 511.5,359.5C 498.167,359.5 484.833,359.5 471.5,359.5C 471.5,352.5 471.5,345.5 471.5,338.5 Z"/></g>
<g><path style="opacity:1" fill="#0cb7df" d="M -0.5,359.5 C 12.8333,359.5 26.1667,359.5 39.5,359.5C 39.5,362.167 39.5,364.833 39.5,367.5C 26.1667,367.5 12.8333,367.5 -0.5,367.5C -0.5,364.833 -0.5,362.167 -0.5,359.5 Z"/></g>
<g><path style="opacity:1" fill="#0cb7df" d="M 195.5,359.5 C 208.833,359.5 222.167,359.5 235.5,359.5C 235.5,362.167 235.5,364.833 235.5,367.5C 222.167,367.5 208.833,367.5 195.5,367.5C 195.5,364.833 195.5,362.167 195.5,359.5 Z"/></g>
<g><path style="opacity:1" fill="#0cb7df" d="M 275.5,359.5 C 288.833,359.5 302.167,359.5 315.5,359.5C 315.5,362.167 315.5,364.833 315.5,367.5C 302.167,367.5 288.833,367.5 275.5,367.5C 275.5,364.833 275.5,362.167 275.5,359.5 Z"/></g>
<g><path style="opacity:1" fill="#0cb7df" d="M 471.5,359.5 C 484.833,359.5 498.167,359.5 511.5,359.5C 511.5,362.167 511.5,364.833 511.5,367.5C 498.167,367.5 484.833,367.5 471.5,367.5C 471.5,364.833 471.5,362.167 471.5,359.5 Z"/></g>
<g><path style="opacity:1" fill="#0bb6e1" d="M -0.5,367.5 C 12.8333,367.5 26.1667,367.5 39.5,367.5C 39.5,369.5 39.5,371.5 39.5,373.5C 26.1667,373.5 12.8333,373.5 -0.5,373.5C -0.5,371.5 -0.5,369.5 -0.5,367.5 Z"/></g>
<g><path style="opacity:1" fill="#0bb6e1" d="M 195.5,367.5 C 208.833,367.5 222.167,367.5 235.5,367.5C 235.5,369.5 235.5,371.5 235.5,373.5C 222.167,373.5 208.833,373.5 195.5,373.5C 195.5,371.5 195.5,369.5 195.5,367.5 Z"/></g>
<g><path style="opacity:1" fill="#0bb6e1" d="M 275.5,367.5 C 288.833,367.5 302.167,367.5 315.5,367.5C 315.5,369.5 315.5,371.5 315.5,373.5C 302.167,373.5 288.833,373.5 275.5,373.5C 275.5,371.5 275.5,369.5 275.5,367.5 Z"/></g>
<g><path style="opacity:1" fill="#0bb6e1" d="M 471.5,367.5 C 484.833,367.5 498.167,367.5 511.5,367.5C 511.5,369.5 511.5,371.5 511.5,373.5C 498.167,373.5 484.833,373.5 471.5,373.5C 471.5,371.5 471.5,369.5 471.5,367.5 Z"/></g>
<g><path style="opacity:1" fill="#0ab3e4" d="M -0.5,373.5 C 12.8333,373.5 26.1667,373.5 39.5,373.5C 39.5,383.167 39.5,392.833 39.5,402.5C 26.1667,402.5 12.8333,402.5 -0.5,402.5C -0.5,392.833 -0.5,383.167 -0.5,373.5 Z"/></g>
<g><path style="opacity:1" fill="#0ab3e4" d="M 195.5,373.5 C 208.833,373.5 222.167,373.5 235.5,373.5C 235.5,383.167 235.5,392.833 235.5,402.5C 222.167,402.5 208.833,402.5 195.5,402.5C 195.5,392.833 195.5,383.167 195.5,373.5 Z"/></g>
<g><path style="opacity:1" fill="#0ab3e4" d="M 275.5,373.5 C 288.833,373.5 302.167,373.5 315.5,373.5C 315.5,383.167 315.5,392.833 315.5,402.5C 302.167,402.5 288.833,402.5 275.5,402.5C 275.5,392.833 275.5,383.167 275.5,373.5 Z"/></g>
<g><path style="opacity:1" fill="#0ab3e4" d="M 471.5,373.5 C 484.833,373.5 498.167,373.5 511.5,373.5C 511.5,383.167 511.5,392.833 511.5,402.5C 498.167,402.5 484.833,402.5 471.5,402.5C 471.5,392.833 471.5,383.167 471.5,373.5 Z"/></g>
<g><path style="opacity:1" fill="#08afe8" d="M -0.5,402.5 C 12.8333,402.5 26.1667,402.5 39.5,402.5C 39.5,406.5 39.5,410.5 39.5,414.5C 26.1667,414.5 12.8333,414.5 -0.5,414.5C -0.5,410.5 -0.5,406.5 -0.5,402.5 Z"/></g>
<g><path style="opacity:1" fill="#08afe8" d="M 195.5,402.5 C 208.833,402.5 222.167,402.5 235.5,402.5C 235.5,406.5 235.5,410.5 235.5,414.5C 222.167,414.5 208.833,414.5 195.5,414.5C 195.5,410.5 195.5,406.5 195.5,402.5 Z"/></g>
<g><path style="opacity:1" fill="#08afe8" d="M 275.5,402.5 C 288.833,402.5 302.167,402.5 315.5,402.5C 315.5,406.5 315.5,410.5 315.5,414.5C 302.167,414.5 288.833,414.5 275.5,414.5C 275.5,410.5 275.5,406.5 275.5,402.5 Z"/></g>
<g><path style="opacity:1" fill="#08afe8" d="M 471.5,402.5 C 484.833,402.5 498.167,402.5 511.5,402.5C 511.5,406.5 511.5,410.5 511.5,414.5C 498.167,414.5 484.833,414.5 471.5,414.5C 471.5,410.5 471.5,406.5 471.5,402.5 Z"/></g>
<g><path style="opacity:1" fill="#07adeb" d="M -0.5,414.5 C 12.8333,414.5 26.1667,414.5 39.5,414.5C 39.5,420.5 39.5,426.5 39.5,432.5C 26.1667,432.5 12.8333,432.5 -0.5,432.5C -0.5,426.5 -0.5,420.5 -0.5,414.5 Z"/></g>
<g><path style="opacity:1" fill="#07adeb" d="M 195.5,414.5 C 208.833,414.5 222.167,414.5 235.5,414.5C 235.5,420.5 235.5,426.5 235.5,432.5C 222.167,432.5 208.833,432.5 195.5,432.5C 195.5,426.5 195.5,420.5 195.5,414.5 Z"/></g>
<g><path style="opacity:1" fill="#07adeb" d="M 275.5,414.5 C 288.833,414.5 302.167,414.5 315.5,414.5C 315.5,420.5 315.5,426.5 315.5,432.5C 302.167,432.5 288.833,432.5 275.5,432.5C 275.5,426.5 275.5,420.5 275.5,414.5 Z"/></g>
<g><path style="opacity:1" fill="#07adeb" d="M 471.5,414.5 C 484.833,414.5 498.167,414.5 511.5,414.5C 511.5,420.5 511.5,426.5 511.5,432.5C 498.167,432.5 484.833,432.5 471.5,432.5C 471.5,426.5 471.5,420.5 471.5,414.5 Z"/></g>
<g><path style="opacity:1" fill="#05a9ef" d="M -0.5,432.5 C 12.8333,432.5 26.1667,432.5 39.5,432.5C 39.5,438.167 39.5,443.833 39.5,449.5C 26.1667,449.5 12.8333,449.5 -0.5,449.5C -0.5,443.833 -0.5,438.167 -0.5,432.5 Z"/></g>
<g><path style="opacity:1" fill="#05a9ef" d="M 195.5,432.5 C 208.833,432.5 222.167,432.5 235.5,432.5C 235.5,438.167 235.5,443.833 235.5,449.5C 222.167,449.5 208.833,449.5 195.5,449.5C 195.5,443.833 195.5,438.167 195.5,432.5 Z"/></g>
<g><path style="opacity:1" fill="#05a9ef" d="M 275.5,432.5 C 288.833,432.5 302.167,432.5 315.5,432.5C 315.5,438.167 315.5,443.833 315.5,449.5C 302.167,449.5 288.833,449.5 275.5,449.5C 275.5,443.833 275.5,438.167 275.5,432.5 Z"/></g>
<g><path style="opacity:1" fill="#05a9ef" d="M 471.5,432.5 C 484.833,432.5 498.167,432.5 511.5,432.5C 511.5,438.167 511.5,443.833 511.5,449.5C 498.167,449.5 484.833,449.5 471.5,449.5C 471.5,443.833 471.5,438.167 471.5,432.5 Z"/></g>
<g><path style="opacity:0.979" fill="#04a7f2" d="M -0.5,449.5 C 12.8333,449.5 26.1667,449.5 39.5,449.5C 39.9536,454.446 41.287,459.112 43.5,463.5C 29.1667,463.5 14.8333,463.5 0.5,463.5C 0.166667,463.5 -0.166667,463.5 -0.5,463.5C -0.5,458.833 -0.5,454.167 -0.5,449.5 Z"/></g>
<g><path style="opacity:0.979" fill="#04a7f2" d="M 195.5,449.5 C 208.833,449.5 222.167,449.5 235.5,449.5C 235.819,454.363 235.486,459.03 234.5,463.5C 220.167,463.5 205.833,463.5 191.5,463.5C 193.713,459.112 195.046,454.446 195.5,449.5 Z"/></g>
<g><path style="opacity:0.977" fill="#04a7f2" d="M 275.5,449.5 C 288.833,449.5 302.167,449.5 315.5,449.5C 315.699,454.735 317.365,459.401 320.5,463.5C 305.833,463.5 291.167,463.5 276.5,463.5C 275.559,458.93 275.226,454.263 275.5,449.5 Z"/></g>
<g><path style="opacity:0.977" fill="#04a7f2" d="M 471.5,449.5 C 484.833,449.5 498.167,449.5 511.5,449.5C 511.5,453.833 511.5,458.167 511.5,462.5C 510.833,462.5 510.5,462.833 510.5,463.5C 495.833,463.5 481.167,463.5 466.5,463.5C 469.635,459.401 471.301,454.735 471.5,449.5 Z"/></g>
<g><path style="opacity:0.987" fill="#02a4f6" d="M 0.5,463.5 C 14.8333,463.5 29.1667,463.5 43.5,463.5C 47.3811,468.107 52.3811,470.607 58.5,471C 97.8333,471.667 137.167,471.667 176.5,471C 182.619,470.607 187.619,468.107 191.5,463.5C 205.833,463.5 220.167,463.5 234.5,463.5C 233.436,471.708 230.436,479.042 225.5,485.5C 153.5,485.5 81.5,485.5 9.5,485.5C 4.56417,479.042 1.56417,471.708 0.5,463.5 Z"/></g>
<g><path style="opacity:0.987" fill="#02a4f6" d="M 276.5,463.5 C 291.167,463.5 305.833,463.5 320.5,463.5C 324.363,468.098 329.363,470.598 335.5,471C 374.167,471.667 412.833,471.667 451.5,471C 457.637,470.598 462.637,468.098 466.5,463.5C 481.167,463.5 495.833,463.5 510.5,463.5C 509.13,471.564 506.13,478.897 501.5,485.5C 429.5,485.5 357.5,485.5 285.5,485.5C 280.87,478.897 277.87,471.564 276.5,463.5 Z"/></g>
<g><path style="opacity:0.993" fill="#02a1f8" d="M 9.5,485.5 C 81.5,485.5 153.5,485.5 225.5,485.5C 223.853,488.473 221.853,491.14 219.5,493.5C 151.5,493.5 83.5,493.5 15.5,493.5C 13.1468,491.14 11.1468,488.473 9.5,485.5 Z"/></g>
<g><path style="opacity:0.992" fill="#02a1f8" d="M 285.5,485.5 C 357.5,485.5 429.5,485.5 501.5,485.5C 499.883,488.784 497.55,491.451 494.5,493.5C 427.167,493.5 359.833,493.5 292.5,493.5C 289.45,491.451 287.117,488.784 285.5,485.5 Z"/></g>
<g><path style="opacity:0.984" fill="#009ffb" d="M 15.5,493.5 C 83.5,493.5 151.5,493.5 219.5,493.5C 210.595,502.619 199.928,508.619 187.5,511.5C 140.833,511.5 94.1667,511.5 47.5,511.5C 35.0716,508.619 24.4049,502.619 15.5,493.5 Z"/></g>
<g><path style="opacity:0.984" fill="#009ffb" d="M 292.5,493.5 C 359.833,493.5 427.167,493.5 494.5,493.5C 492,496.832 489,499.666 485.5,502C 478.181,506.336 470.514,509.503 462.5,511.5C 416.5,511.5 370.5,511.5 324.5,511.5C 316.486,509.503 308.819,506.336 301.5,502C 298,499.666 295,496.832 292.5,493.5 Z"/></g>
</svg>
