
<svg xmlns="http://www.w3.org/2000/svg" version="1.1" width="512px" height="512px" style="shape-rendering:geometricPrecision; text-rendering:geometricPrecision; image-rendering:optimizeQuality; fill-rule:evenodd; clip-rule:evenodd" xmlns:xlink="http://www.w3.org/1999/xlink">
<g><path style="opacity:0.995" fill="#02cdbf" d="M 233.5,-0.5 C 234.167,-0.5 234.833,-0.5 235.5,-0.5C 235.5,33.5 235.5,67.5 235.5,101.5C 230.844,96.5149 225.51,92.5149 219.5,89.5C 219.5,60.1667 219.5,30.8333 219.5,1.5C 224.338,1.08855 229.005,0.421887 233.5,-0.5 Z"/></g>
<g><path style="opacity:0.999" fill="#02c9c5" d="M 235.5,-0.5 C 244.5,-0.5 253.5,-0.5 262.5,-0.5C 262.5,170.167 262.5,340.833 262.5,511.5C 253.5,511.5 244.5,511.5 235.5,511.5C 235.5,477.5 235.5,443.5 235.5,409.5C 238.789,404.586 241.289,399.252 243,393.5C 244.593,363.192 244.927,332.858 244,302.5C 242.807,294.788 239.974,287.788 235.5,281.5C 235.5,264.167 235.5,246.833 235.5,229.5C 239.073,224.35 241.573,218.683 243,212.5C 244.099,196.697 244.599,180.863 244.5,165C 244.599,149.137 244.099,133.303 243,117.5C 241.289,111.748 238.789,106.414 235.5,101.5C 235.5,67.5 235.5,33.5 235.5,-0.5 Z"/></g>
<g><path style="opacity:0.997" fill="#04c5ca" d="M 262.5,-0.5 C 267.5,-0.5 272.5,-0.5 277.5,-0.5C 282.646,0.551416 287.979,1.21808 293.5,1.5C 293.5,30.8333 293.5,60.1667 293.5,89.5C 277.622,96.2247 268.788,108.225 267,125.5C 266.333,151.833 266.333,178.167 267,204.5C 268.33,222.313 277.163,234.646 293.5,241.5C 293.5,250.833 293.5,260.167 293.5,269.5C 278.548,275.964 269.715,287.297 267,303.5C 266.333,330.5 266.333,357.5 267,384.5C 268.33,402.313 277.163,414.646 293.5,421.5C 293.5,450.833 293.5,480.167 293.5,509.5C 287.979,509.782 282.646,510.449 277.5,511.5C 272.5,511.5 267.5,511.5 262.5,511.5C 262.5,340.833 262.5,170.167 262.5,-0.5 Z"/></g>
<g><path style="opacity:0.993" fill="#05cfbd" d="M 219.5,1.5 C 219.5,30.8333 219.5,60.1667 219.5,89.5C 214.422,88.2795 209.422,87.2795 204.5,86.5C 205.833,86.5 207.167,86.5 208.5,86.5C 208.5,58.8333 208.5,31.1667 208.5,3.5C 212.112,2.57777 215.779,1.9111 219.5,1.5 Z"/></g>
<g><path style="opacity:0.993" fill="#02c0d1" d="M 293.5,1.5 C 302.624,3.03159 311.624,5.03159 320.5,7.5C 320.5,33.8333 320.5,60.1667 320.5,86.5C 311.278,86.0455 302.278,87.0455 293.5,89.5C 293.5,60.1667 293.5,30.8333 293.5,1.5 Z"/></g>
<g><path style="opacity:0.993" fill="#00d2b8" d="M 208.5,3.5 C 208.5,31.1667 208.5,58.8333 208.5,86.5C 207.167,86.5 205.833,86.5 204.5,86.5C 196.833,86.5 189.167,86.5 181.5,86.5C 181.5,60.8333 181.5,35.1667 181.5,9.5C 190.391,7.02743 199.391,5.02743 208.5,3.5 Z"/></g>
<g><path style="opacity:0.991" fill="#00bcd5" d="M 320.5,7.5 C 325.072,8.3876 329.405,9.72093 333.5,11.5C 333.5,36.5 333.5,61.5 333.5,86.5C 329.167,86.5 324.833,86.5 320.5,86.5C 320.5,60.1667 320.5,33.8333 320.5,7.5 Z"/></g>
<g><path style="opacity:0.99" fill="#00d7b2" d="M 181.5,9.5 C 181.5,35.1667 181.5,60.8333 181.5,86.5C 170.833,86.5 160.167,86.5 149.5,86.5C 149.5,65.1667 149.5,43.8333 149.5,22.5C 159.65,17.0985 170.316,12.7652 181.5,9.5 Z"/></g>
<g><path style="opacity:0.991" fill="#00bad8" d="M 333.5,11.5 C 338.534,12.3982 343.201,14.0649 347.5,16.5C 347.5,39.8333 347.5,63.1667 347.5,86.5C 342.833,86.5 338.167,86.5 333.5,86.5C 333.5,61.5 333.5,36.5 333.5,11.5 Z"/></g>
<g><path style="opacity:0.989" fill="#00b7dd" d="M 347.5,16.5 C 356.911,19.7084 365.911,23.7084 374.5,28.5C 374.5,47.8333 374.5,67.1667 374.5,86.5C 365.5,86.5 356.5,86.5 347.5,86.5C 347.5,63.1667 347.5,39.8333 347.5,16.5 Z"/></g>
<g><path style="opacity:0.986" fill="#02dcab" d="M 149.5,22.5 C 149.5,43.8333 149.5,65.1667 149.5,86.5C 139.801,86.2747 130.134,86.608 120.5,87.5C 122.464,70.7381 123.13,53.7381 122.5,36.5C 130.749,30.541 139.749,25.8743 149.5,22.5 Z"/></g>
<g><path style="opacity:0.985" fill="#02b2e3" d="M 374.5,28.5 C 385.97,33.9871 396.636,40.6538 406.5,48.5C 406.5,63.5 406.5,78.5 406.5,93.5C 396.562,88.0166 385.895,85.6833 374.5,86.5C 374.5,67.1667 374.5,47.8333 374.5,28.5 Z"/></g>
<g><path style="opacity:0.984" fill="#01dfa7" d="M 122.5,36.5 C 123.13,53.7381 122.464,70.7381 120.5,87.5C 117.123,87.9595 113.789,88.6261 110.5,89.5C 110.5,74.5 110.5,59.5 110.5,44.5C 114.148,41.3401 118.148,38.6735 122.5,36.5 Z"/></g>
<g><path style="opacity:0.982" fill="#06e1a4" d="M 110.5,44.5 C 110.5,59.5 110.5,74.5 110.5,89.5C 104.947,92.7095 99.9475,96.7095 95.5,101.5C 95.5,86.1667 95.5,70.8333 95.5,55.5C 99.9586,51.1031 104.959,47.4365 110.5,44.5 Z"/></g>
<g><path style="opacity:0.993" fill="#03adeb" d="M 406.5,48.5 C 416.072,54.7364 424.738,62.0697 432.5,70.5C 432.5,193.833 432.5,317.167 432.5,440.5C 424.738,448.93 416.072,456.264 406.5,462.5C 406.5,447.5 406.5,432.5 406.5,417.5C 416.388,410.41 422.221,400.743 424,388.5C 424.167,374.333 424.333,360.167 424.5,346C 424.62,329.796 424.12,313.63 423,297.5C 420.016,287.697 414.516,279.697 406.5,273.5C 406.5,261.5 406.5,249.5 406.5,237.5C 416.388,230.41 422.221,220.743 424,208.5C 424.167,194.333 424.333,180.167 424.5,166C 424.612,149.467 424.112,132.967 423,116.5C 419.928,106.998 414.428,99.3313 406.5,93.5C 406.5,78.5 406.5,63.5 406.5,48.5 Z"/></g>
<g><path style="opacity:0.995" fill="#02e59f" d="M 95.5,55.5 C 95.5,70.8333 95.5,86.1667 95.5,101.5C 90.6269,107.607 87.7936,114.607 87,122.5C 86.3333,150.5 86.3333,178.5 87,206.5C 87.7674,214.973 90.6008,222.64 95.5,229.5C 95.5,246.833 95.5,264.167 95.5,281.5C 92.4705,286.226 89.9705,291.226 88,296.5C 86.8985,312.804 86.3985,329.137 86.5,345.5C 86.6667,359.167 86.8333,372.833 87,386.5C 87.5563,395.092 90.3896,402.759 95.5,409.5C 95.5,424.833 95.5,440.167 95.5,455.5C 85.5722,448.241 76.5722,439.908 68.5,430.5C 68.5,313.833 68.5,197.167 68.5,80.5C 76.5722,71.0918 85.5722,62.7585 95.5,55.5 Z"/></g>
<g><path style="opacity:0.996" fill="#00a9ef" d="M 432.5,70.5 C 438.559,75.5572 443.893,81.2238 448.5,87.5C 448.5,199.5 448.5,311.5 448.5,423.5C 443.893,429.776 438.559,435.443 432.5,440.5C 432.5,317.167 432.5,193.833 432.5,70.5 Z"/></g>
<g><path style="opacity:0.993" fill="#00e999" d="M 68.5,80.5 C 68.5,197.167 68.5,313.833 68.5,430.5C 56.6682,418.334 46.3348,405.001 37.5,390.5C 37.5,300.5 37.5,210.5 37.5,120.5C 46.3348,105.999 56.6682,92.666 68.5,80.5 Z"/></g>
<g><path style="opacity:1" fill="#fefefe" d="M 149.5,86.5 C 160.167,86.5 170.833,86.5 181.5,86.5C 189.167,86.5 196.833,86.5 204.5,86.5C 209.422,87.2795 214.422,88.2795 219.5,89.5C 225.51,92.5149 230.844,96.5149 235.5,101.5C 238.789,106.414 241.289,111.748 243,117.5C 244.099,133.303 244.599,149.137 244.5,165C 244.599,180.863 244.099,196.697 243,212.5C 241.573,218.683 239.073,224.35 235.5,229.5C 227.059,238.555 216.726,243.555 204.5,244.5C 196.833,244.5 189.167,244.5 181.5,244.5C 170.833,244.5 160.167,244.5 149.5,244.5C 140.5,244.5 131.5,244.5 122.5,244.5C 111.875,242.356 102.875,237.356 95.5,229.5C 90.6008,222.64 87.7674,214.973 87,206.5C 86.3333,178.5 86.3333,150.5 87,122.5C 87.7936,114.607 90.6269,107.607 95.5,101.5C 99.9475,96.7095 104.947,92.7095 110.5,89.5C 113.789,88.6261 117.123,87.9595 120.5,87.5C 130.134,86.608 139.801,86.2747 149.5,86.5 Z"/></g>
<g><path style="opacity:1" fill="#fefefe" d="M 320.5,86.5 C 324.833,86.5 329.167,86.5 333.5,86.5C 338.167,86.5 342.833,86.5 347.5,86.5C 356.5,86.5 365.5,86.5 374.5,86.5C 385.895,85.6833 396.562,88.0166 406.5,93.5C 414.428,99.3313 419.928,106.998 423,116.5C 424.112,132.967 424.612,149.467 424.5,166C 424.333,180.167 424.167,194.333 424,208.5C 422.221,220.743 416.388,230.41 406.5,237.5C 396.564,242.75 385.897,245.083 374.5,244.5C 365.5,244.5 356.5,244.5 347.5,244.5C 338.5,244.5 329.5,244.5 320.5,244.5C 311.251,245.156 302.251,244.156 293.5,241.5C 277.163,234.646 268.33,222.313 267,204.5C 266.333,178.167 266.333,151.833 267,125.5C 268.788,108.225 277.622,96.2247 293.5,89.5C 302.278,87.0455 311.278,86.0455 320.5,86.5 Z"/></g>
<g><path style="opacity:0.994" fill="#00a7f2" d="M 448.5,87.5 C 452.869,91.2366 456.535,95.5699 459.5,100.5C 459.5,203.833 459.5,307.167 459.5,410.5C 456.535,415.43 452.869,419.763 448.5,423.5C 448.5,311.5 448.5,199.5 448.5,87.5 Z"/></g>
<g><path style="opacity:0.991" fill="#00a4f6" d="M 459.5,100.5 C 469.409,112.764 477.742,126.098 484.5,140.5C 484.5,217.167 484.5,293.833 484.5,370.5C 477.742,384.902 469.409,398.236 459.5,410.5C 459.5,307.167 459.5,203.833 459.5,100.5 Z"/></g>
<g><path style="opacity:1" fill="#01dcab" d="M 149.5,116.5 C 149.5,148.833 149.5,181.167 149.5,213.5C 140.833,213.5 132.167,213.5 123.5,213.5C 122.508,213.672 121.842,213.338 121.5,212.5C 122.833,181.167 122.833,149.833 121.5,118.5C 121.918,117.778 122.584,117.278 123.5,117C 132.16,116.5 140.827,116.334 149.5,116.5 Z"/></g>
<g><path style="opacity:1" fill="#00d7b2" d="M 149.5,116.5 C 160.167,116.5 170.833,116.5 181.5,116.5C 181.5,148.833 181.5,181.167 181.5,213.5C 179.585,213.216 177.919,213.549 176.5,214.5C 158.659,214.83 140.992,214.497 123.5,213.5C 132.167,213.5 140.833,213.5 149.5,213.5C 149.5,181.167 149.5,148.833 149.5,116.5 Z"/></g>
<g><path style="opacity:1" fill="#01d2b8" d="M 181.5,116.5 C 190.584,116.196 199.584,116.529 208.5,117.5C 208.5,149.167 208.5,180.833 208.5,212.5C 207.737,213.268 206.737,213.768 205.5,214C 195.839,214.5 186.172,214.666 176.5,214.5C 177.919,213.549 179.585,213.216 181.5,213.5C 181.5,181.167 181.5,148.833 181.5,116.5 Z"/></g>
<g><path style="opacity:1" fill="#04c0d2" d="M 320.5,116.5 C 320.5,148.833 320.5,181.167 320.5,213.5C 323.713,213.19 326.713,213.523 329.5,214.5C 321.16,214.666 312.827,214.5 304.5,214C 300.23,212.73 297.73,209.896 297,205.5C 296.333,178.5 296.333,151.5 297,124.5C 298.105,121.063 300.272,118.563 303.5,117C 309.157,116.501 314.824,116.334 320.5,116.5 Z"/></g>
<g><path style="opacity:1" fill="#00bcd5" d="M 320.5,116.5 C 324.833,116.5 329.167,116.5 333.5,116.5C 333.5,149.167 333.5,181.833 333.5,214.5C 332.167,214.5 330.833,214.5 329.5,214.5C 326.713,213.523 323.713,213.19 320.5,213.5C 320.5,181.167 320.5,148.833 320.5,116.5 Z"/></g>
<g><path style="opacity:1" fill="#00bad8" d="M 333.5,116.5 C 338.167,116.5 342.833,116.5 347.5,116.5C 347.5,148.833 347.5,181.167 347.5,213.5C 352.363,213.181 357.03,213.514 361.5,214.5C 352.167,214.5 342.833,214.5 333.5,214.5C 333.5,181.833 333.5,149.167 333.5,116.5 Z"/></g>
<g><path style="opacity:1" fill="#00b7dd" d="M 347.5,116.5 C 355.167,116.5 362.833,116.5 370.5,116.5C 370.5,148.833 370.5,181.167 370.5,213.5C 375.833,213.5 381.167,213.5 386.5,213.5C 378.35,214.493 370.017,214.826 361.5,214.5C 357.03,213.514 352.363,213.181 347.5,213.5C 347.5,181.167 347.5,148.833 347.5,116.5 Z"/></g>
<g><path style="opacity:1" fill="#03b3e2" d="M 370.5,116.5 C 376.176,116.334 381.843,116.501 387.5,117C 390.333,118.5 392.5,120.667 394,123.5C 394.667,151.167 394.667,178.833 394,206.5C 392.917,210.418 390.417,212.752 386.5,213.5C 381.167,213.5 375.833,213.5 370.5,213.5C 370.5,181.167 370.5,148.833 370.5,116.5 Z"/></g>
<g><path style="opacity:1" fill="#08dfa8" d="M 121.5,118.5 C 122.833,149.833 122.833,181.167 121.5,212.5C 119.496,211.327 117.996,209.66 117,207.5C 116.333,179.5 116.333,151.5 117,123.5C 117.996,121.34 119.496,119.673 121.5,118.5 Z"/></g>
<g><path style="opacity:1" fill="#0ad0bd" d="M 208.5,117.5 C 210.836,119.004 212.669,121.004 214,123.5C 214.667,150.833 214.667,178.167 214,205.5C 213.568,209.072 211.735,211.405 208.5,212.5C 208.5,180.833 208.5,149.167 208.5,117.5 Z"/></g>
<g><path style="opacity:0.989" fill="#00ed94" d="M 37.5,120.5 C 37.5,210.5 37.5,300.5 37.5,390.5C 35.4405,387.76 33.7738,384.76 32.5,381.5C 32.5,297.5 32.5,213.5 32.5,129.5C 33.7738,126.24 35.4405,123.24 37.5,120.5 Z"/></g>
<g><path style="opacity:0.984" fill="#00ef92" d="M 32.5,129.5 C 32.5,213.5 32.5,297.5 32.5,381.5C 22.7395,365.636 15.4062,348.636 10.5,330.5C 10.5,280.5 10.5,230.5 10.5,180.5C 15.4062,162.364 22.7395,145.364 32.5,129.5 Z"/></g>
<g><path style="opacity:0.968" fill="#00a0fb" d="M 484.5,140.5 C 499.381,169.807 508.381,200.807 511.5,233.5C 511.5,248.167 511.5,262.833 511.5,277.5C 508.381,310.193 499.381,341.193 484.5,370.5C 484.5,293.833 484.5,217.167 484.5,140.5 Z"/></g>
<g><path style="opacity:0.936" fill="#00f18e" d="M 10.5,180.5 C 10.5,230.5 10.5,280.5 10.5,330.5C 5.0056,313.196 1.33893,295.53 -0.5,277.5C -0.5,262.833 -0.5,248.167 -0.5,233.5C 1.33893,215.47 5.0056,197.804 10.5,180.5 Z"/></g>
<g><path style="opacity:1" fill="#0ae1a5" d="M 95.5,229.5 C 102.875,237.356 111.875,242.356 122.5,244.5C 122.5,251.833 122.5,259.167 122.5,266.5C 111.875,268.644 102.875,273.644 95.5,281.5C 95.5,264.167 95.5,246.833 95.5,229.5 Z"/></g>
<g><path style="opacity:1" fill="#0ecec0" d="M 235.5,229.5 C 235.5,246.833 235.5,264.167 235.5,281.5C 227.059,272.445 216.726,267.445 204.5,266.5C 205.833,266.5 207.167,266.5 208.5,266.5C 208.5,259.167 208.5,251.833 208.5,244.5C 207.167,244.5 205.833,244.5 204.5,244.5C 216.726,243.555 227.059,238.555 235.5,229.5 Z"/></g>
<g><path style="opacity:1" fill="#0eb3e4" d="M 406.5,237.5 C 406.5,249.5 406.5,261.5 406.5,273.5C 396.564,268.25 385.897,265.917 374.5,266.5C 374.5,259.167 374.5,251.833 374.5,244.5C 385.897,245.083 396.564,242.75 406.5,237.5 Z"/></g>
<g><path style="opacity:1" fill="#02c0d1" d="M 293.5,241.5 C 302.251,244.156 311.251,245.156 320.5,244.5C 320.5,251.833 320.5,259.167 320.5,266.5C 311.251,265.844 302.251,266.844 293.5,269.5C 293.5,260.167 293.5,250.833 293.5,241.5 Z"/></g>
<g><path style="opacity:1" fill="#00dcab" d="M 122.5,244.5 C 131.5,244.5 140.5,244.5 149.5,244.5C 149.5,251.833 149.5,259.167 149.5,266.5C 140.5,266.5 131.5,266.5 122.5,266.5C 122.5,259.167 122.5,251.833 122.5,244.5 Z"/></g>
<g><path style="opacity:1" fill="#00d7b2" d="M 149.5,244.5 C 160.167,244.5 170.833,244.5 181.5,244.5C 181.5,251.833 181.5,259.167 181.5,266.5C 170.833,266.5 160.167,266.5 149.5,266.5C 149.5,259.167 149.5,251.833 149.5,244.5 Z"/></g>
<g><path style="opacity:1" fill="#00d2b8" d="M 181.5,244.5 C 189.167,244.5 196.833,244.5 204.5,244.5C 205.833,244.5 207.167,244.5 208.5,244.5C 208.5,251.833 208.5,259.167 208.5,266.5C 207.167,266.5 205.833,266.5 204.5,266.5C 196.833,266.5 189.167,266.5 181.5,266.5C 181.5,259.167 181.5,251.833 181.5,244.5 Z"/></g>
<g><path style="opacity:1" fill="#00bbd7" d="M 320.5,244.5 C 329.5,244.5 338.5,244.5 347.5,244.5C 347.5,251.833 347.5,259.167 347.5,266.5C 338.5,266.5 329.5,266.5 320.5,266.5C 320.5,259.167 320.5,251.833 320.5,244.5 Z"/></g>
<g><path style="opacity:1" fill="#00b7dd" d="M 347.5,244.5 C 356.5,244.5 365.5,244.5 374.5,244.5C 374.5,251.833 374.5,259.167 374.5,266.5C 365.5,266.5 356.5,266.5 347.5,266.5C 347.5,259.167 347.5,251.833 347.5,244.5 Z"/></g>
<g><path style="opacity:1" fill="#fefefe" d="M 122.5,266.5 C 131.5,266.5 140.5,266.5 149.5,266.5C 160.167,266.5 170.833,266.5 181.5,266.5C 189.167,266.5 196.833,266.5 204.5,266.5C 216.726,267.445 227.059,272.445 235.5,281.5C 239.974,287.788 242.807,294.788 244,302.5C 244.927,332.858 244.593,363.192 243,393.5C 241.289,399.252 238.789,404.586 235.5,409.5C 230.844,414.485 225.51,418.485 219.5,421.5C 214.422,422.72 209.422,423.72 204.5,424.5C 196.833,424.5 189.167,424.5 181.5,424.5C 170.833,424.5 160.167,424.5 149.5,424.5C 139.801,424.725 130.134,424.392 120.5,423.5C 117.123,423.041 113.789,422.374 110.5,421.5C 104.947,418.29 99.9475,414.29 95.5,409.5C 90.3896,402.759 87.5563,395.092 87,386.5C 86.8333,372.833 86.6667,359.167 86.5,345.5C 86.3985,329.137 86.8985,312.804 88,296.5C 89.9705,291.226 92.4705,286.226 95.5,281.5C 102.875,273.644 111.875,268.644 122.5,266.5 Z"/></g>
<g><path style="opacity:1" fill="#fefefe" d="M 320.5,266.5 C 329.5,266.5 338.5,266.5 347.5,266.5C 356.5,266.5 365.5,266.5 374.5,266.5C 385.897,265.917 396.564,268.25 406.5,273.5C 414.516,279.697 420.016,287.697 423,297.5C 424.12,313.63 424.62,329.796 424.5,346C 424.333,360.167 424.167,374.333 424,388.5C 422.221,400.743 416.388,410.41 406.5,417.5C 396.562,422.983 385.895,425.317 374.5,424.5C 365.5,424.5 356.5,424.5 347.5,424.5C 342.833,424.5 338.167,424.5 333.5,424.5C 329.167,424.5 324.833,424.5 320.5,424.5C 311.278,424.955 302.278,423.955 293.5,421.5C 277.163,414.646 268.33,402.313 267,384.5C 266.333,357.5 266.333,330.5 267,303.5C 269.715,287.297 278.548,275.964 293.5,269.5C 302.251,266.844 311.251,265.844 320.5,266.5 Z"/></g>
<g><path style="opacity:1" fill="#01dcab" d="M 121.5,298.5 C 121.842,297.662 122.508,297.328 123.5,297.5C 132.167,297.5 140.833,297.5 149.5,297.5C 149.5,329.833 149.5,362.167 149.5,394.5C 140.827,394.666 132.16,394.5 123.5,394C 122.584,393.722 121.918,393.222 121.5,392.5C 122.833,361.167 122.833,329.833 121.5,298.5 Z"/></g>
<g><path style="opacity:1" fill="#00d7b2" d="M 123.5,297.5 C 140.992,296.503 158.659,296.17 176.5,296.5C 177.919,297.451 179.585,297.784 181.5,297.5C 181.5,329.833 181.5,362.167 181.5,394.5C 170.833,394.5 160.167,394.5 149.5,394.5C 149.5,362.167 149.5,329.833 149.5,297.5C 140.833,297.5 132.167,297.5 123.5,297.5 Z"/></g>
<g><path style="opacity:1" fill="#01d2b8" d="M 176.5,296.5 C 186.172,296.334 195.839,296.5 205.5,297C 206.737,297.232 207.737,297.732 208.5,298.5C 208.5,330.167 208.5,361.833 208.5,393.5C 199.584,394.471 190.584,394.804 181.5,394.5C 181.5,362.167 181.5,329.833 181.5,297.5C 179.585,297.784 177.919,297.451 176.5,296.5 Z"/></g>
<g><path style="opacity:1" fill="#04c0d2" d="M 329.5,296.5 C 326.713,297.477 323.713,297.81 320.5,297.5C 320.5,329.833 320.5,362.167 320.5,394.5C 314.824,394.666 309.157,394.499 303.5,394C 299.835,392.332 297.668,389.499 297,385.5C 296.333,358.5 296.333,331.5 297,304.5C 298.167,300.667 300.667,298.167 304.5,297C 312.827,296.5 321.16,296.334 329.5,296.5 Z"/></g>
<g><path style="opacity:1" fill="#00bcd5" d="M 329.5,296.5 C 330.833,296.5 332.167,296.5 333.5,296.5C 333.5,329.167 333.5,361.833 333.5,394.5C 329.167,394.5 324.833,394.5 320.5,394.5C 320.5,362.167 320.5,329.833 320.5,297.5C 323.713,297.81 326.713,297.477 329.5,296.5 Z"/></g>
<g><path style="opacity:1" fill="#00bad8" d="M 333.5,296.5 C 342.833,296.5 352.167,296.5 361.5,296.5C 357.03,297.486 352.363,297.819 347.5,297.5C 347.5,329.833 347.5,362.167 347.5,394.5C 342.833,394.5 338.167,394.5 333.5,394.5C 333.5,361.833 333.5,329.167 333.5,296.5 Z"/></g>
<g><path style="opacity:1" fill="#00b7dd" d="M 361.5,296.5 C 370.017,296.174 378.35,296.507 386.5,297.5C 381.167,297.5 375.833,297.5 370.5,297.5C 370.5,329.833 370.5,362.167 370.5,394.5C 362.833,394.5 355.167,394.5 347.5,394.5C 347.5,362.167 347.5,329.833 347.5,297.5C 352.363,297.819 357.03,297.486 361.5,296.5 Z"/></g>
<g><path style="opacity:1" fill="#03b3e2" d="M 386.5,297.5 C 390.02,298.183 392.52,300.183 394,303.5C 394.667,331.5 394.667,359.5 394,387.5C 392.5,390.333 390.333,392.5 387.5,394C 381.843,394.499 376.176,394.666 370.5,394.5C 370.5,362.167 370.5,329.833 370.5,297.5C 375.833,297.5 381.167,297.5 386.5,297.5 Z"/></g>
<g><path style="opacity:1" fill="#07dfa8" d="M 121.5,298.5 C 122.833,329.833 122.833,361.167 121.5,392.5C 119.496,391.327 117.996,389.66 117,387.5C 116.333,359.5 116.333,331.5 117,303.5C 117.996,301.34 119.496,299.673 121.5,298.5 Z"/></g>
<g><path style="opacity:1" fill="#0ad0bd" d="M 208.5,298.5 C 211.091,299.254 212.924,300.921 214,303.5C 214.667,330.833 214.667,358.167 214,385.5C 213.544,389.121 211.711,391.788 208.5,393.5C 208.5,361.833 208.5,330.167 208.5,298.5 Z"/></g>
<g><path style="opacity:0.982" fill="#06e1a4" d="M 95.5,409.5 C 99.9475,414.29 104.947,418.29 110.5,421.5C 110.5,436.5 110.5,451.5 110.5,466.5C 104.959,463.564 99.9586,459.897 95.5,455.5C 95.5,440.167 95.5,424.833 95.5,409.5 Z"/></g>
<g><path style="opacity:0.995" fill="#02cdbf" d="M 235.5,409.5 C 235.5,443.5 235.5,477.5 235.5,511.5C 234.833,511.5 234.167,511.5 233.5,511.5C 229.005,510.578 224.338,509.911 219.5,509.5C 219.5,480.167 219.5,450.833 219.5,421.5C 225.51,418.485 230.844,414.485 235.5,409.5 Z"/></g>
<g><path style="opacity:0.985" fill="#02b2e3" d="M 406.5,417.5 C 406.5,432.5 406.5,447.5 406.5,462.5C 396.636,470.346 385.97,477.013 374.5,482.5C 374.5,463.167 374.5,443.833 374.5,424.5C 385.895,425.317 396.562,422.983 406.5,417.5 Z"/></g>
<g><path style="opacity:0.984" fill="#01dfa7" d="M 110.5,421.5 C 113.789,422.374 117.123,423.041 120.5,423.5C 122.464,440.262 123.13,457.262 122.5,474.5C 118.148,472.327 114.148,469.66 110.5,466.5C 110.5,451.5 110.5,436.5 110.5,421.5 Z"/></g>
<g><path style="opacity:0.993" fill="#05cfbd" d="M 219.5,421.5 C 219.5,450.833 219.5,480.167 219.5,509.5C 215.779,509.089 212.112,508.422 208.5,507.5C 208.5,479.833 208.5,452.167 208.5,424.5C 207.167,424.5 205.833,424.5 204.5,424.5C 209.422,423.72 214.422,422.72 219.5,421.5 Z"/></g>
<g><path style="opacity:0.993" fill="#02c0d1" d="M 293.5,421.5 C 302.278,423.955 311.278,424.955 320.5,424.5C 320.5,450.833 320.5,477.167 320.5,503.5C 311.624,505.968 302.624,507.968 293.5,509.5C 293.5,480.167 293.5,450.833 293.5,421.5 Z"/></g>
<g><path style="opacity:0.986" fill="#02dcab" d="M 120.5,423.5 C 130.134,424.392 139.801,424.725 149.5,424.5C 149.5,445.833 149.5,467.167 149.5,488.5C 139.749,485.126 130.749,480.459 122.5,474.5C 123.13,457.262 122.464,440.262 120.5,423.5 Z"/></g>
<g><path style="opacity:0.99" fill="#00d7b2" d="M 149.5,424.5 C 160.167,424.5 170.833,424.5 181.5,424.5C 181.5,450.167 181.5,475.833 181.5,501.5C 170.316,498.235 159.65,493.901 149.5,488.5C 149.5,467.167 149.5,445.833 149.5,424.5 Z"/></g>
<g><path style="opacity:0.993" fill="#00d2b8" d="M 181.5,424.5 C 189.167,424.5 196.833,424.5 204.5,424.5C 205.833,424.5 207.167,424.5 208.5,424.5C 208.5,452.167 208.5,479.833 208.5,507.5C 199.391,505.973 190.391,503.973 181.5,501.5C 181.5,475.833 181.5,450.167 181.5,424.5 Z"/></g>
<g><path style="opacity:0.991" fill="#00bcd5" d="M 320.5,424.5 C 324.833,424.5 329.167,424.5 333.5,424.5C 333.5,449.5 333.5,474.5 333.5,499.5C 329.405,501.279 325.072,502.612 320.5,503.5C 320.5,477.167 320.5,450.833 320.5,424.5 Z"/></g>
<g><path style="opacity:0.991" fill="#00bad8" d="M 333.5,424.5 C 338.167,424.5 342.833,424.5 347.5,424.5C 347.5,447.833 347.5,471.167 347.5,494.5C 343.201,496.935 338.534,498.602 333.5,499.5C 333.5,474.5 333.5,449.5 333.5,424.5 Z"/></g>
<g><path style="opacity:0.989" fill="#00b7dd" d="M 347.5,424.5 C 356.5,424.5 365.5,424.5 374.5,424.5C 374.5,443.833 374.5,463.167 374.5,482.5C 365.911,487.292 356.911,491.292 347.5,494.5C 347.5,471.167 347.5,447.833 347.5,424.5 Z"/></g>
</svg>
